<?xml version="1.0" encoding="UTF-8" standalone="no"?>
<svg
   xmlns:dc="http://purl.org/dc/elements/1.1/"
   xmlns:cc="http://creativecommons.org/ns#"
   xmlns:rdf="http://www.w3.org/1999/02/22-rdf-syntax-ns#"
   xmlns:svg="http://www.w3.org/2000/svg"
   xmlns="http://www.w3.org/2000/svg"
   xmlns:sodipodi="http://sodipodi.sourceforge.net/DTD/sodipodi-0.dtd"
   xmlns:inkscape="http://www.inkscape.org/namespaces/inkscape"
   width="183"
   height="400"
   viewBox="0 0 183 400"
   version="1.0"
   id="svg2"
   inkscape:version="0.91 r"
   sodipodi:docname="child-f.svg">
  <defs
     id="defs14" />
  <sodipodi:namedview
     pagecolor="#ffffff"
     bordercolor="#666666"
     borderopacity="1"
     objecttolerance="10"
     gridtolerance="10"
     guidetolerance="10"
     inkscape:pageopacity="0"
     inkscape:pageshadow="2"
     inkscape:window-width="1920"
     inkscape:window-height="1056"
     id="namedview12"
     showgrid="false"
     inkscape:zoom="1.1125147"
     inkscape:cx="-341.44067"
     inkscape:cy="166.79547"
     inkscape:window-x="0"
     inkscape:window-y="24"
     inkscape:window-maximized="1"
     inkscape:current-layer="svg2"
     fit-margin-top="0"
     fit-margin-left="0"
     fit-margin-right="0"
     fit-margin-bottom="0" />
  <metadata
     id="metadata4">
    <rdf:RDF>
      <cc:Work
         rdf:about="">
        <dc:format>image/svg+xml</dc:format>
        <dc:type
           rdf:resource="http://purl.org/dc/dcmitype/StillImage" />
        <dc:title>Male and female toilets symbol</dc:title>
      </cc:Work>
    </rdf:RDF>
  </metadata>
  <title
     id="title6">Male and female toilets symbol</title>
  <path
     style="opacity:1;fill:#1a1a1a;fill-opacity:1;stroke:none;stroke-width:5;stroke-miterlimit:4;stroke-dasharray:none;stroke-opacity:1"
     d="m 91.585128,105.2364 c -9.391905,0.0326 -17.739492,5.43072 -21.712213,14.04102 -4.964869,10.76065 -0.800561,24.33516 9.278443,30.24186 6.261713,3.66961 11.966795,4.575 18.258218,2.8985 5.528034,-1.47305 7.899664,-2.9412 12.002374,-7.43024 4.42096,-4.83722 6.09355,-9.19729 6.09859,-15.89208 0.004,-7.18894 -1.77046,-11.42556 -7.01473,-16.73899 -5.15992,-5.22796 -9.714207,-7.14509 -16.910682,-7.12007 z m -0.109653,54.11389 c -9.277178,0.003 -18.545366,0.24673 -21.109133,0.73294 -9.306142,1.76487 -18.766702,8.65023 -22.696178,16.51823 -2.176164,4.35736 -23.76094,75.39752 -23.76094,78.20234 0,5.95917 4.375894,10.15229 10.600014,10.15708 3.070786,0.003 3.930654,-0.34683 6.022113,-2.43827 2.771831,-2.77184 2.728232,-2.64256 14.462302,-42.43469 l 7.678407,-26.03906 2.459922,0 c 1.998802,0 2.386676,0.2421 2.068926,1.29271 -1.666271,5.50927 -31.472531,108.89384 -31.472531,109.16413 0,0.19118 6.648272,0.3477 14.773939,0.3477 l 14.77394,0 0,42.29473 c 0,25.29741 0.288667,43.30571 0.719941,44.80947 0.86853,3.02842 3.291271,5.79292 6.297679,7.18787 2.987773,1.38632 8.691481,0.74802 11.559458,-1.29416 4.380006,-3.11883 4.322528,-2.4576 4.322528,-49.76104 l 0,-43.23687 3.324138,0 3.324136,0 0,43.40999 c 0,49.30666 -0.274264,47.00574 5.962964,50.26748 5.52367,2.88857 11.07721,1.47079 15.04374,-3.84065 1.4927,-1.99885 1.52642,-2.91438 1.7241,-45.93917 l 0.202,-43.89765 14.75663,0 c 8.1163,0 14.75806,-0.20289 14.75806,-0.45015 0,-0.24724 -7.14689,-25.00707 -15.88198,-55.02137 -8.73509,-30.01431 -15.88199,-54.74245 -15.88199,-54.95214 0,-0.20971 1.14033,-0.38088 2.53494,-0.38088 1.7756,0 2.65168,0.38748 2.92159,1.29271 0.21202,0.711 4.58162,15.40463 9.70983,32.65272 5.12822,17.24809 9.95804,32.25232 10.7342,33.34237 2.0798,2.9208 6.73692,4.58552 10.21047,3.65019 4.4842,-1.20747 7.47208,-5.27684 7.47208,-10.17583 0,-3.76572 -21.50663,-74.65752 -23.87491,-78.69866 -4.5349,-7.73822 -13.95462,-14.43107 -22.57931,-16.04069 -2.59775,-0.48481 -11.8839,-0.72387 -21.161075,-0.72138 z"
     id="rect4144"
     inkscape:connector-curvature="0"
     sodipodi:nodetypes="ssssscsssssscsscsssscssssscccsssscsssssssssssss" />
</svg>
