<?xml version="1.0" encoding="UTF-8" standalone="no"?>
<svg
   xmlns:dc="http://purl.org/dc/elements/1.1/"
   xmlns:cc="http://creativecommons.org/ns#"
   xmlns:rdf="http://www.w3.org/1999/02/22-rdf-syntax-ns#"
   xmlns:svg="http://www.w3.org/2000/svg"
   xmlns="http://www.w3.org/2000/svg"
   xmlns:sodipodi="http://sodipodi.sourceforge.net/DTD/sodipodi-0.dtd"
   xmlns:inkscape="http://www.inkscape.org/namespaces/inkscape"
   width="183"
   height="400"
   viewBox="0 0 183 400"
   version="1.0"
   id="svg2"
   inkscape:version="0.91 r"
   sodipodi:docname="child-m.svg">
  <defs
     id="defs14" />
  <sodipodi:namedview
     pagecolor="#ffffff"
     bordercolor="#666666"
     borderopacity="1"
     objecttolerance="10"
     gridtolerance="10"
     guidetolerance="10"
     inkscape:pageopacity="0"
     inkscape:pageshadow="2"
     inkscape:window-width="1920"
     inkscape:window-height="1056"
     id="namedview12"
     showgrid="false"
     inkscape:zoom="1.1125147"
     inkscape:cx="-286.4641"
     inkscape:cy="300"
     inkscape:window-x="0"
     inkscape:window-y="24"
     inkscape:window-maximized="1"
     inkscape:current-layer="svg2" />
  <metadata
     id="metadata4">
    <rdf:RDF>
      <cc:Work
         rdf:about="">
        <dc:format>image/svg+xml</dc:format>
        <dc:type
           rdf:resource="http://purl.org/dc/dcmitype/StillImage" />
        <dc:title>Male and female toilets symbol</dc:title>
      </cc:Work>
    </rdf:RDF>
  </metadata>
  <title
     id="title6">Male and female toilets symbol</title>
  <path
     style="opacity:1;fill:#1a1a1a;fill-opacity:1;stroke:none;stroke-width:5;stroke-miterlimit:4;stroke-dasharray:none;stroke-opacity:1"
     d="m 91.342437,131.28134 c -5.906045,0.0142 -11.824481,2.34521 -16.077868,7.07601 -7.531133,8.37643 -7.603753,21.25933 -0.166096,29.32824 3.408604,3.6979 6.077587,5.34167 10.679916,6.57904 4.735536,1.27319 6.276975,1.28301 10.939594,0.0686 15.337477,-3.99495 21.551957,-21.44112 12.216917,-34.29521 -4.2215,-5.81289 -10.89895,-8.77271 -17.592463,-8.75668 z m 6.095274,49.53072 c -2.724439,0.008 -5.75211,0.0281 -9.129728,0.058 -23.903443,0.21131 -25.393029,0.29696 -29.090972,1.68596 -7.618716,2.8617 -13.765582,8.88698 -16.928099,16.59196 -1.412039,3.44022 -1.450671,4.42985 -1.631911,42.3308 -0.175463,36.6936 -0.116901,38.93253 1.065095,41.11674 3.235678,5.97925 12.819027,6.33059 16.313823,0.59846 1.31637,-2.15912 1.361886,-3.32561 1.364323,-34.79738 l 0.0027,-32.56438 2.362183,0 2.362183,0 0,87.35595 c 0,60.08048 0.224705,87.95008 0.718415,89.25677 0.948463,2.51033 3.852943,5.55788 6.368135,6.68056 2.862473,1.27769 7.628946,1.13991 10.826235,-0.31241 3.690318,-1.67628 6.114707,-4.74898 6.998231,-8.86874 0.492616,-2.29699 0.735543,-19.88934 0.735543,-53.33761 l 0,-49.90903 2.024729,0 2.024728,0 0,51.92321 c 0,35.14045 0.232553,52.53821 0.71973,53.82402 3.491379,9.21477 17.693486,10.25518 22.742596,1.66619 l 1.84677,-3.13991 0.17796,-87.5695 0.17927,-87.5695 2.01418,0 2.01551,0 0.001,32.22692 c 6.7e-4,29.3295 0.10714,32.43931 1.18109,34.58911 3.0972,6.19991 13.14748,6.17399 16.48123,-0.0422 1.15122,-2.14655 1.23382,-4.7488 1.23382,-39.1197 0,-40.02754 -0.0874,-41.12385 -3.84514,-48.02798 -2.36279,-4.34123 -8.10841,-9.67372 -12.67301,-11.76346 -5.189,-2.37561 -9.38977,-2.93903 -28.460874,-2.88286 z"
     id="rect4144"
     inkscape:connector-curvature="0"
     sodipodi:nodetypes="ssssssscssssssscccsssssscccsscccccccssssssc" />
</svg>
