<?xml version="1.0" encoding="UTF-8" standalone="no"?>
<svg
   xmlns:dc="http://purl.org/dc/elements/1.1/"
   xmlns:cc="http://creativecommons.org/ns#"
   xmlns:rdf="http://www.w3.org/1999/02/22-rdf-syntax-ns#"
   xmlns:svg="http://www.w3.org/2000/svg"
   xmlns="http://www.w3.org/2000/svg"
   xmlns:sodipodi="http://sodipodi.sourceforge.net/DTD/sodipodi-0.dtd"
   xmlns:inkscape="http://www.inkscape.org/namespaces/inkscape"
   width="183"
   height="400"
   viewBox="0 0 183 400"
   version="1.0"
   id="svg2"
   inkscape:version="0.91 r"
   sodipodi:docname="man.svg">
  <defs
     id="defs14" />
  <sodipodi:namedview
     pagecolor="#ffffff"
     bordercolor="#666666"
     borderopacity="1"
     objecttolerance="10"
     gridtolerance="10"
     guidetolerance="10"
     inkscape:pageopacity="0"
     inkscape:pageshadow="2"
     inkscape:window-width="1920"
     inkscape:window-height="1056"
     id="namedview12"
     showgrid="false"
     inkscape:zoom="1.1125147"
     inkscape:cx="-74.781506"
     inkscape:cy="300"
     inkscape:window-x="0"
     inkscape:window-y="24"
     inkscape:window-maximized="1"
     inkscape:current-layer="svg2" />
  <metadata
     id="metadata4">
    <rdf:RDF>
      <cc:Work
         rdf:about="">
        <dc:format>image/svg+xml</dc:format>
        <dc:type
           rdf:resource="http://purl.org/dc/dcmitype/StillImage" />
        <dc:title>Male and female toilets symbol</dc:title>
      </cc:Work>
    </rdf:RDF>
  </metadata>
  <title
     id="title6">Male and female toilets symbol</title>
  <path
     style="opacity:1;fill:#1a1a1a;fill-opacity:1;stroke:none;stroke-width:5;stroke-miterlimit:4;stroke-dasharray:none;stroke-opacity:1"
     d="m 91.266543,1.8449047 c -8.75087,0.021 -17.5201,3.47486 -23.82226,10.4843803 -11.15873,12.4112 -11.26633,31.49953 -0.2461,43.45508 5.05046,5.4791 9.00504,7.91464 15.82422,9.74804 7.01655,1.88646 9.30047,1.90101 16.20898,0.10157 22.725237,-5.91917 31.933107,-31.76882 18.101567,-50.81446 C 111.07803,6.2066647 101.18419,1.8211547 91.266543,1.8449047 Z m 9.031247,73.3886903 c -4.036747,0.0119 -8.522787,0.0417 -13.527337,0.0859 -35.41726,0.31309 -37.62435,0.43999 -43.10352,2.49805 -11.2885,4.24012 -20.39619,13.16766 -25.08203,24.583975 -2.09219,5.09731 -2.14943,6.56362 -2.41797,62.72071 -0.25998,54.36819 -0.17321,57.68556 1.57813,60.92187 4.79424,8.85933 18.9937,9.37991 24.17187,0.88672 1.95044,-3.19912 2.01788,-4.92749 2.02149,-51.55859 l 0.004,-48.25 3.5,0 3.5,0 0,129.43359 c 0,89.02006 0.33294,130.31389 1.06446,132.25 1.40532,3.7195 5.70883,8.23499 9.43554,9.89844 4.24127,1.89313 11.30366,1.68899 16.04102,-0.46289 5.46787,-2.48371 9.06004,-7.03647 10.36914,-13.14063 0.7299,-3.4034 1.08984,-29.46965 1.08984,-79.02929 l 0,-73.94922 3,0 3,0 0,76.93359 c 0,52.06692 0.34457,77.84484 1.06641,79.75 5.173107,13.65333 26.216097,15.19489 33.697257,2.46875 l 2.73633,-4.65234 0.26367,-129.75 0.26563,-129.75 2.98437,0 2.98633,0 0.002,47.75 c 0.001,43.45693 0.15876,48.06468 1.75,51.25 4.58907,9.18628 19.48036,9.14788 24.41992,-0.0625 1.70573,-3.18051 1.82812,-7.0362 1.82812,-57.96289 0,-59.30802 -0.12955,-60.9324 -5.69726,-71.162105 -3.50091,-6.43232 -12.01407,-14.33336 -18.77735,-17.42969 -7.68844,-3.51989 -13.91264,-4.35471 -42.16992,-4.27148 z"
     id="rect4144"
     inkscape:connector-curvature="0"
     sodipodi:nodetypes="ssssssscssssssscccsssssscccsscccccccssssssc" />
</svg>
