<?xml version="1.0" encoding="UTF-8" standalone="no"?>
<svg
   xmlns:dc="http://purl.org/dc/elements/1.1/"
   xmlns:cc="http://creativecommons.org/ns#"
   xmlns:rdf="http://www.w3.org/1999/02/22-rdf-syntax-ns#"
   xmlns:svg="http://www.w3.org/2000/svg"
   xmlns="http://www.w3.org/2000/svg"
   xmlns:sodipodi="http://sodipodi.sourceforge.net/DTD/sodipodi-0.dtd"
   xmlns:inkscape="http://www.inkscape.org/namespaces/inkscape"
   width="183"
   height="400"
   viewBox="0 0 183 400"
   version="1.0"
   id="svg2"
   inkscape:version="0.91 r"
   sodipodi:docname="woman.svg">
  <defs
     id="defs14" />
  <sodipodi:namedview
     pagecolor="#ffffff"
     bordercolor="#666666"
     borderopacity="1"
     objecttolerance="10"
     gridtolerance="10"
     guidetolerance="10"
     inkscape:pageopacity="0"
     inkscape:pageshadow="2"
     inkscape:window-width="1920"
     inkscape:window-height="1056"
     id="namedview12"
     showgrid="false"
     inkscape:zoom="1.1125147"
     inkscape:cx="81.924531"
     inkscape:cy="166.79547"
     inkscape:window-x="0"
     inkscape:window-y="24"
     inkscape:window-maximized="1"
     inkscape:current-layer="svg2"
     fit-margin-top="0"
     fit-margin-left="0"
     fit-margin-right="0"
     fit-margin-bottom="0" />
  <metadata
     id="metadata4">
    <rdf:RDF>
      <cc:Work
         rdf:about="">
        <dc:format>image/svg+xml</dc:format>
        <dc:type
           rdf:resource="http://purl.org/dc/dcmitype/StillImage" />
        <dc:title>Male and female toilets symbol</dc:title>
      </cc:Work>
    </rdf:RDF>
  </metadata>
  <title
     id="title6">Male and female toilets symbol</title>
  <path
     style="opacity:1;fill:#1a1a1a;fill-opacity:1;stroke:none;stroke-width:5;stroke-miterlimit:4;stroke-dasharray:none;stroke-opacity:1"
     d="m 91.615238,0.96822226 c -12.71415,0.0442 -24.01457,7.35174704 -29.39258,19.00781274 -6.72112,14.567064 -1.08375,32.943364 12.56055,40.939454 8.4767,4.96768 16.19987,6.19334 24.71679,3.92383 7.483492,-1.99414 10.694052,-3.98164 16.248052,-10.0586 5.98478,-6.54831 8.24904,-12.45068 8.25586,-21.51367 0.007,-9.731908 -2.39674,-15.467159 -9.49609,-22.660155 C 107.52265,3.5296143 101.35736,0.93435227 91.615238,0.96822226 Z M 91.466798,74.224079 c -12.55884,0.003 -25.10551,0.334 -28.57617,0.99219 -12.59805,2.38917 -25.405142,11.71013 -30.724612,22.36133 C 29.220066,103.4763 0,199.64586 0,203.44283 c 0,8.06714 5.9238,13.74351 14.34961,13.75 4.15703,0.003 5.321064,-0.4695 8.152344,-3.30078 3.752326,-3.75233 3.693305,-3.57732 19.578125,-57.44531 l 10.394529,-35.25 3.33008,0 c 2.70585,0 3.23093,0.32776 2.80078,1.75 C 56.349778,130.40483 16,270.36013 16,270.72603 c 0,0.25882 9,0.47071 20,0.47071 l 19.999998,0 0,57.25586 c 0,34.24599 0.39078,58.62445 0.97461,60.66015 1.17576,4.09965 4.45551,7.84207 8.52539,9.73047 4.04465,1.87669 11.76596,1.01262 15.64844,-1.75195 5.92937,-4.22208 5.85156,-3.32696 5.85156,-67.36328 l 0,-58.53125 4.5,0 4.5,0 0,58.76562 c 0,66.74815 -0.37128,63.6333 8.072272,68.04883 7.47759,3.91038 14.9956,1.99107 20.36523,-5.19922 2.02074,-2.7059 2.06638,-3.94529 2.33399,-62.18945 l 0.27343,-59.42578 19.97657,0 c 10.98732,0 19.97851,-0.27467 19.97851,-0.60938 0,-0.3347 -9.675,-33.85295 -21.5,-74.48437 -11.825,-40.63142 -21.5,-74.10676 -21.5,-74.39063 0,-0.28388 1.54371,-0.51562 3.43164,-0.51562 2.4037,0 3.58967,0.52456 3.95508,1.75 0.287,0.9625 6.20229,20.85378 13.14453,44.20312 6.94224,23.34933 13.48052,43.66111 14.53125,45.13672 2.8155,3.95401 9.12001,6.2076 13.82227,4.94141 C 178.95519,215.59339 183,210.08456 183,203.4526 c 0,-5.09778 -29.11431,-101.06649 -32.32031,-106.537111 -6.13905,-10.4755 -18.89086,-19.53584 -30.56641,-21.71485 -3.51666,-0.65631 -16.08764,-0.97994 -28.646482,-0.97656 z"
     id="rect4144"
     inkscape:connector-curvature="0"
     sodipodi:nodetypes="ssssscsssssscsscsssscssssscccsssscsssssssssssss" />
</svg>
